<svg width="33" height="35" viewBox="0 0 33 35" fill="none" xmlns="http://www.w3.org/2000/svg">
<path d="M5.5 29.1666C4.74375 29.1666 4.09635 28.881 3.55781 28.3098C3.01927 27.7386 2.75 27.052 2.75 26.2499V8.74992C2.75 7.94784 3.01927 7.2612 3.55781 6.69002C4.09635 6.11884 4.74375 5.83325 5.5 5.83325H27.5C28.2563 5.83325 28.9036 6.11884 29.4422 6.69002C29.9807 7.2612 30.25 7.94784 30.25 8.74992V26.2499C30.25 27.052 29.9807 27.7386 29.4422 28.3098C28.9036 28.881 28.2563 29.1666 27.5 29.1666H5.5ZM16.5 18.9583L5.5 11.6666V26.2499H27.5V11.6666L16.5 18.9583ZM16.5 16.0416L27.5 8.74992H5.5L16.5 16.0416ZM5.5 11.6666V8.74992V26.2499V11.6666Z" fill="#FEF7FF"/>
</svg>
