<svg width="47" height="40" viewBox="0 0 47 40" xmlns="http://www.w3.org/2000/svg">
<path d="M7.8335 31.6667V28.3333H11.7502V16.6667C11.7502 14.3611 12.5661 12.3194 14.1981 10.5417C15.83 8.73611 17.9516 7.55555 20.5627 7V5.83333C20.5627 5.13889 20.8401 4.55555 21.395 4.08333C21.9825 3.58333 22.6842 3.33333 23.5002 3.33333C24.3161 3.33333 25.0016 3.58333 25.5564 4.08333C26.1439 4.55555 26.4377 5.13889 26.4377 5.83333V7C29.0488 7.55555 31.1703 8.73611 32.8022 10.5417C34.4342 12.3194 35.2502 14.3611 35.2502 16.6667V28.3333H39.1668V31.6667H7.8335ZM23.5002 36.6667C22.4231 36.6667 21.4929 36.3472 20.7095 35.7083C19.9588 35.0417 19.5835 34.25 19.5835 33.3333H27.4168C27.4168 34.25 27.0252 35.0417 26.2418 35.7083C25.4911 36.3472 24.5772 36.6667 23.5002 36.6667ZM15.6668 28.3333H31.3335V16.6667C31.3335 14.8333 30.5665 13.2639 29.0325 11.9583C27.4984 10.6528 25.6543 10 23.5002 10C21.346 10 19.5019 10.6528 17.9679 11.9583C16.4338 13.2639 15.6668 14.8333 15.6668 16.6667V28.3333Z"/>
</svg>