<svg width="33" height="29" viewBox="0 0 33 29" fill="none" xmlns="http://www.w3.org/2000/svg">
<g clip-path="url(#clip0_1_143)">
<path d="M30.25 20.445V24.07C30.2515 24.4065 30.1731 24.7396 30.0197 25.0479C29.8663 25.3563 29.6413 25.633 29.3591 25.8605C29.0769 26.088 28.7438 26.2612 28.381 26.3691C28.0182 26.4769 27.6339 26.5169 27.2525 26.4866C23.0214 26.0826 18.9571 24.812 15.3862 22.777C12.064 20.9218 9.24731 18.4466 7.13622 15.527C4.81244 12.3747 3.3663 8.78574 2.91497 5.05079C2.88061 4.71664 2.9258 4.37987 3.04766 4.06192C3.16952 3.74396 3.36538 3.45179 3.62277 3.204C3.88017 2.95621 4.19345 2.75823 4.54268 2.62267C4.89191 2.48711 5.26944 2.41694 5.65122 2.41662H9.77622C10.4435 2.41085 11.0904 2.61851 11.5964 3.00089C12.1023 3.38327 12.4328 3.91429 12.5262 4.49495C12.7003 5.65503 13.0232 6.79408 13.4887 7.89037C13.6737 8.32286 13.7138 8.79289 13.6041 9.24477C13.4944 9.69664 13.2397 10.1114 12.87 10.44L11.1237 11.9745C13.0811 14.9997 15.9313 17.5044 19.3737 19.2245L21.12 17.69C21.4938 17.3651 21.9658 17.1412 22.48 17.0448C22.9942 16.9484 23.5291 16.9836 24.0212 17.1462C25.2687 17.5553 26.5649 17.839 27.885 17.992C28.5529 18.0748 29.1629 18.3705 29.599 18.8228C30.035 19.275 30.2667 19.8524 30.25 20.445Z" stroke="#FEF7FF" stroke-width="4" stroke-linecap="round" stroke-linejoin="round"/>
</g>
<defs>
<clipPath id="clip0_1_143">
<rect width="33" height="29" fill="white"/>
</clipPath>
</defs>
</svg>
